<svg width="175" height="135" viewBox="0 0 175 135" fill="none" xmlns="http://www.w3.org/2000/svg">
<path d="M61.1582 84.202L99.9996 45.4257L138.859 84.2188L161.459 61.6568L99.9996 0.301758L38.5598 61.6384L61.159 84.2004L61.1582 84.202ZM0 100.134L22.6007 77.5676L45.1998 100.129L22.5991 122.692L0 100.134ZM61.1582 116.068L99.9996 154.841L138.859 116.049L161.471 138.599L161.459 138.611L99.9996 199.965L38.5278 138.597L61.1606 116.065L61.1582 116.068ZM154.799 100.143L177.4 77.5803L199.999 100.142L177.399 122.704L154.799 100.143Z" fill="#1D2126"/>
<path d="M122.921 100.122H122.931L99.9996 77.2275L77.0869 100.099L77.0549 100.13L77.0869 100.162L99.9996 123.04L122.932 100.146L122.943 100.133L122.923 100.122" fill="#1D2126"/>
</svg>
