<svg width="176" height="135" viewBox="0 0 176 135" fill="none" xmlns="http://www.w3.org/2000/svg">
<path d="M197.888 124.43C184.532 177.912 130.273 210.46 76.6943 197.123C23.1384 183.79 -9.46439 129.618 3.8972 76.1405C17.2471 22.6528 71.5068 -9.89772 125.068 3.43555C178.643 16.7688 211.244 70.9466 197.887 124.431L197.888 124.43H197.888Z" fill="#1D2126"/>
<path d="M145.157 85.886C147.147 72.6005 137.016 65.4591 123.161 60.695L127.656 42.6987L116.682 39.969L112.307 57.4915C109.422 56.7732 106.46 56.0964 103.515 55.4255L107.922 37.7873L96.9558 35.0576L92.4589 53.0481C90.0717 52.5055 87.727 51.9692 85.4521 51.4041L85.4648 51.3475L70.3324 47.575L67.4133 59.2755C67.4133 59.2755 75.5546 61.1386 75.383 61.2533C79.8266 62.3605 80.6302 65.2971 80.4968 67.6247L75.3772 88.1267C75.6832 88.2043 76.0801 88.3165 76.518 88.4922C76.1519 88.4015 75.7623 88.3024 75.3581 88.2058L68.1822 116.926C67.6391 118.274 66.2607 120.297 63.154 119.529C63.264 119.688 55.1784 117.542 55.1784 117.542L49.7303 130.081L64.0104 133.635C66.6669 134.3 69.2702 134.996 71.8339 135.651L67.2931 153.853L78.2537 156.583L82.7506 138.573C85.7449 139.385 88.6508 140.134 91.4955 140.839L87.0138 158.764L97.9876 161.493L102.528 143.325C121.24 146.86 135.31 145.435 141.232 128.538C146.004 114.935 140.994 107.088 131.15 101.971C138.32 100.321 143.721 95.6127 145.161 85.8874L145.157 85.885L145.157 85.886ZM120.085 120.984C116.694 134.587 93.7513 127.234 86.3129 125.39L92.3387 101.274C99.7766 103.128 123.63 106.796 120.086 120.984H120.085ZM123.479 85.6888C120.385 98.0628 101.29 91.7762 95.0955 90.2348L100.559 68.3635C106.753 69.905 126.702 72.782 123.48 85.6888H123.479Z" fill="#0B0E11"/>
</svg>
