<svg width="147" height="103" viewBox="0 0 147 103" fill="none" xmlns="http://www.w3.org/2000/svg">
<path d="M42.3629 104.44C29.1149 104.344 19.0829 100.84 12.2669 93.928C5.45088 86.92 1.75488 77.752 1.17888 66.424C0.986875 61.24 0.890875 56.632 0.890875 52.6C0.890875 48.472 0.986875 43.72 1.17888 38.344C1.56288 31.144 3.29088 24.76 6.36288 19.192C9.53088 13.528 14.1389 9.064 20.1869 5.8C26.2349 2.44 33.6269 0.759995 42.3629 0.759995C55.3229 0.855993 65.3069 4.35999 72.3149 11.272C79.3229 18.184 83.1149 27.208 83.6909 38.344C83.8829 43.72 83.9789 48.472 83.9789 52.6C83.9789 56.632 83.8829 61.24 83.6909 66.424C83.0189 77.752 79.2749 86.92 72.4589 93.928C65.6429 100.84 55.6109 104.344 42.3629 104.44ZM42.3629 83.56C47.0669 83.56 50.5709 82.024 52.8749 78.952C55.2749 75.784 56.5709 71.368 56.7629 65.704C56.9549 62.92 57.0509 58.456 57.0509 52.312C57.0509 46.168 56.9549 41.8 56.7629 39.208C56.5709 33.736 55.3229 29.416 53.0189 26.248C50.7149 23.08 47.1629 21.448 42.3629 21.352C37.6589 21.448 34.1069 23.08 31.7069 26.248C29.4029 29.416 28.1549 33.736 27.9629 39.208C27.8669 41.8 27.8189 46.168 27.8189 52.312C27.8189 58.456 27.8669 62.92 27.9629 65.704C28.4429 77.608 33.2429 83.56 42.3629 83.56ZM131.31 103C130.35 103 129.486 102.664 128.718 101.992C128.046 101.224 127.71 100.36 127.71 99.4V30.856L107.982 45.976C107.31 46.552 106.59 46.84 105.822 46.84C104.766 46.84 103.806 46.264 102.942 45.112L94.4459 34.024C93.9659 33.256 93.7259 32.536 93.7259 31.864C93.7259 30.52 94.3019 29.512 95.4539 28.84L128.574 3.208C129.63 2.53599 130.782 2.19999 132.03 2.19999H150.03C151.086 2.19999 151.95 2.53599 152.622 3.208C153.294 3.87999 153.63 4.74399 153.63 5.8V99.4C153.63 100.36 153.294 101.224 152.622 101.992C151.95 102.664 151.086 103 150.03 103H131.31Z" fill="#1D2126"/>
</svg>
