<svg width="169" height="103" viewBox="0 0 169 103" fill="none" xmlns="http://www.w3.org/2000/svg">
<path d="M42.2848 104.44C29.0368 104.344 19.0048 100.84 12.1888 93.928C5.37275 86.92 1.67675 77.752 1.10075 66.424C0.90875 61.24 0.81275 56.632 0.81275 52.6C0.81275 48.472 0.90875 43.72 1.10075 38.344C1.48475 31.144 3.21275 24.76 6.28475 19.192C9.45275 13.528 14.0608 9.064 20.1088 5.8C26.1568 2.44 33.5488 0.759995 42.2848 0.759995C55.2448 0.855993 65.2288 4.35999 72.2368 11.272C79.2448 18.184 83.0368 27.208 83.6128 38.344C83.8048 43.72 83.9008 48.472 83.9008 52.6C83.9008 56.632 83.8048 61.24 83.6128 66.424C82.9408 77.752 79.1968 86.92 72.3808 93.928C65.5648 100.84 55.5328 104.344 42.2848 104.44ZM42.2848 83.56C46.9888 83.56 50.4928 82.024 52.7968 78.952C55.1968 75.784 56.4928 71.368 56.6848 65.704C56.8768 62.92 56.9728 58.456 56.9728 52.312C56.9728 46.168 56.8768 41.8 56.6848 39.208C56.4928 33.736 55.2448 29.416 52.9408 26.248C50.6368 23.08 47.0848 21.448 42.2848 21.352C37.5808 21.448 34.0288 23.08 31.6288 26.248C29.3248 29.416 28.0768 33.736 27.8848 39.208C27.7888 41.8 27.7408 46.168 27.7408 52.312C27.7408 58.456 27.7888 62.92 27.8848 65.704C28.3648 77.608 33.1648 83.56 42.2848 83.56ZM100.992 103C99.9358 103 99.0238 102.664 98.2558 101.992C97.5838 101.32 97.2478 100.456 97.2478 99.4V89.176C97.2478 86.296 98.4478 83.944 100.848 82.12L115.824 67.432C124.56 60.712 131.184 55.48 135.696 51.736C140.208 47.992 143.616 44.584 145.92 41.512C148.224 38.44 149.376 35.512 149.376 32.728C149.376 25.144 145.632 21.352 138.144 21.352C134.208 21.352 131.184 22.552 129.072 24.952C126.96 27.256 125.568 30.184 124.896 33.736C124.32 35.944 122.688 37.048 120 37.048H102C101.136 37.048 100.416 36.76 99.8398 36.184C99.2638 35.608 98.9758 34.888 98.9758 34.024C99.1678 27.88 100.848 22.264 104.016 17.176C107.28 11.992 111.84 7.91199 117.696 4.93599C123.648 1.86399 130.464 0.327991 138.144 0.327991C146.208 0.327991 153.12 1.62399 158.88 4.21599C164.64 6.80799 169.008 10.456 171.984 15.16C174.96 19.864 176.448 25.336 176.448 31.576C176.448 38.296 174.336 44.44 170.112 50.008C165.984 55.48 159.648 61.432 151.104 67.864L137.856 81.256H174.864C175.92 81.256 176.784 81.592 177.456 82.264C178.224 82.936 178.608 83.8 178.608 84.856V99.4C178.608 100.456 178.224 101.32 177.456 101.992C176.784 102.664 175.92 103 174.864 103H100.992Z" fill="#1D2126"/>
</svg>
