<svg width="170" height="103" viewBox="0 0 170 103" fill="none" xmlns="http://www.w3.org/2000/svg">
<path d="M42.0191 104.44C28.7711 104.344 18.7391 100.84 11.9231 93.928C5.10713 86.92 1.41113 77.752 0.835125 66.424C0.643125 61.24 0.547125 56.632 0.547125 52.6C0.547125 48.472 0.643125 43.72 0.835125 38.344C1.21913 31.144 2.94713 24.76 6.01913 19.192C9.18713 13.528 13.7951 9.064 19.8431 5.8C25.8911 2.44 33.2831 0.759995 42.0191 0.759995C54.9791 0.855993 64.9631 4.35999 71.9711 11.272C78.9791 18.184 82.7711 27.208 83.3471 38.344C83.5391 43.72 83.6351 48.472 83.6351 52.6C83.6351 56.632 83.5391 61.24 83.3471 66.424C82.6751 77.752 78.9311 86.92 72.1151 93.928C65.2991 100.84 55.2671 104.344 42.0191 104.44ZM42.0191 83.56C46.7231 83.56 50.2271 82.024 52.5311 78.952C54.9311 75.784 56.2271 71.368 56.4191 65.704C56.6111 62.92 56.7071 58.456 56.7071 52.312C56.7071 46.168 56.6111 41.8 56.4191 39.208C56.2271 33.736 54.9791 29.416 52.6751 26.248C50.3711 23.08 46.8191 21.448 42.0191 21.352C37.3151 21.448 33.7631 23.08 31.3631 26.248C29.0591 29.416 27.8111 33.736 27.6191 39.208C27.5231 41.8 27.4751 46.168 27.4751 52.312C27.4751 58.456 27.5231 62.92 27.6191 65.704C28.0991 77.608 32.8991 83.56 42.0191 83.56ZM137.878 104.44C128.566 104.44 120.742 103 114.406 100.12C108.166 97.24 103.51 93.688 100.438 89.464C97.4621 85.144 95.8781 80.824 95.6861 76.504C95.6861 75.64 95.9741 74.92 96.5501 74.344C97.2221 73.768 97.9901 73.48 98.8541 73.48H117.718C118.774 73.48 119.638 73.672 120.31 74.056C120.982 74.44 121.606 75.16 122.182 76.216C124.102 81.208 129.334 83.704 137.878 83.704C142.774 83.704 146.566 82.6 149.254 80.392C152.038 78.088 153.43 74.968 153.43 71.032C153.43 63.352 148.438 59.512 138.454 59.512H122.47C121.51 59.512 120.646 59.176 119.878 58.504C119.206 57.736 118.87 56.872 118.87 55.912V47.848C118.87 45.736 119.638 44.104 121.174 42.952L144.79 22.936H104.758C103.798 22.936 102.934 22.6 102.166 21.928C101.494 21.16 101.158 20.296 101.158 19.336V5.8C101.158 4.74399 101.494 3.87999 102.166 3.208C102.934 2.53599 103.798 2.19999 104.758 2.19999H170.998C172.054 2.19999 172.918 2.53599 173.59 3.208C174.358 3.87999 174.742 4.74399 174.742 5.8V18.04C174.742 19.864 173.974 21.448 172.438 22.792L150.55 43.096L151.558 43.384C160.39 44.536 167.35 47.512 172.438 52.312C177.622 57.016 180.214 63.784 180.214 72.616C180.214 79.048 178.39 84.664 174.742 89.464C171.094 94.264 166.054 97.96 159.622 100.552C153.19 103.144 145.942 104.44 137.878 104.44Z" fill="#1D2126"/>
</svg>
