<svg width="173" height="103" viewBox="0 0 173 103" fill="none" xmlns="http://www.w3.org/2000/svg">
<path d="M41.6441 104.44C28.3961 104.344 18.3641 100.84 11.5481 93.928C4.73213 86.92 1.03613 77.752 0.460125 66.424C0.268125 61.24 0.172125 56.632 0.172125 52.6C0.172125 48.472 0.268125 43.72 0.460125 38.344C0.844126 31.144 2.57213 24.76 5.64413 19.192C8.81213 13.528 13.4201 9.064 19.4681 5.8C25.5161 2.44 32.9081 0.759995 41.6441 0.759995C54.6041 0.855993 64.5881 4.35999 71.5961 11.272C78.6041 18.184 82.3961 27.208 82.9721 38.344C83.1641 43.72 83.2601 48.472 83.2601 52.6C83.2601 56.632 83.1641 61.24 82.9721 66.424C82.3001 77.752 78.5561 86.92 71.7401 93.928C64.9241 100.84 54.8921 104.344 41.6441 104.44ZM41.6441 83.56C46.3481 83.56 49.8521 82.024 52.1561 78.952C54.5561 75.784 55.8521 71.368 56.0441 65.704C56.2361 62.92 56.3321 58.456 56.3321 52.312C56.3321 46.168 56.2361 41.8 56.0441 39.208C55.8521 33.736 54.6041 29.416 52.3001 26.248C49.9961 23.08 46.4441 21.448 41.6441 21.352C36.9401 21.448 33.3881 23.08 30.9881 26.248C28.6841 29.416 27.4361 33.736 27.2441 39.208C27.1481 41.8 27.1001 46.168 27.1001 52.312C27.1001 58.456 27.1481 62.92 27.2441 65.704C27.7241 77.608 32.5241 83.56 41.6441 83.56ZM146.719 103C145.759 103 144.895 102.664 144.127 101.992C143.455 101.224 143.119 100.36 143.119 99.4V83.128H98.3351C97.2791 83.128 96.4151 82.792 95.7431 82.12C95.0711 81.448 94.7351 80.584 94.7351 79.528V65.848C94.7351 64.408 95.2631 62.92 96.3191 61.384L138.223 4.648C139.567 3.01599 141.343 2.19999 143.551 2.19999H164.575C165.631 2.19999 166.495 2.53599 167.167 3.208C167.839 3.87999 168.175 4.74399 168.175 5.8V61.672H180.847C181.999 61.672 182.911 62.056 183.583 62.824C184.255 63.496 184.591 64.312 184.591 65.272V79.528C184.591 80.584 184.255 81.448 183.583 82.12C182.911 82.792 182.047 83.128 180.991 83.128H168.175V99.4C168.175 100.36 167.839 101.224 167.167 101.992C166.495 102.664 165.631 103 164.575 103H146.719ZM143.695 62.68V28.696L119.503 62.68H143.695Z" fill="#1D2126"/>
</svg>
