<svg width="100" height="100" viewBox="0 0 100 100" fill="none" xmlns="http://www.w3.org/2000/svg">
<path d="M68 79L65.2727 73.4706V37.5294L68 32H53L55.7273 37.5294V73.4706L53 79H68Z" fill="#8D96A2"/>
<path d="M56 38H65V41H56V38Z" fill="#7B8492"/>
<path d="M56 70H65V73H56V70Z" fill="#7B8492"/>
<path d="M47 79L44.2727 73.4706V37.5294L47 32H32L34.7273 37.5294V73.4706L32 79H47Z" fill="#8D96A2"/>
<path d="M35 38H44V41H35V38Z" fill="#7B8492"/>
<path d="M35 70H44V73H35V70Z" fill="#7B8492"/>
<path d="M50 72C59.3888 72 67 64.6127 67 55.5C67 46.3873 59.3888 39 50 39C40.6112 39 33 46.3873 33 55.5C33 64.6127 40.6112 72 50 72Z" fill="#FAB40B"/>
<path d="M43 51.25V59.75L50 64L57 59.75L56.9998 51.2498L50 47L43 51.25Z" fill="#EB8117"/>
<path d="M10 21H90V32H10V21Z" fill="#B5BAC1"/>
<path d="M10 79H90V90H10V79Z" fill="#B5BAC1"/>
<path d="M83 21L50 10L17 21H83Z" fill="#8D96A2"/>
<path d="M30 79L27.0909 73.4706V37.5294L30 32H14L16.9091 37.5294V73.4706L14 79H30Z" fill="#8D96A2"/>
<path d="M17 38H27V41H17V38Z" fill="#7B8492"/>
<path d="M17 70H27V73H17V70Z" fill="#7B8492"/>
<path d="M10 83H90V86H10V83Z" fill="#8D96A2"/>
<path d="M73 38H83V40H73V38Z" fill="#7B8492"/>
<path d="M73 71H83V73H73V71Z" fill="#7B8492"/>
<path d="M86 79L83.0909 73.4706V37.5294L86 32H70L72.9091 37.5294V73.4706L70 79H86Z" fill="#8D96A2"/>
</svg>
