<svg width="100" height="100" viewBox="0 0 100 100" fill="none" xmlns="http://www.w3.org/2000/svg">
<path d="M15.04 36C14.2337 36 13.4605 36.3161 12.8904 36.8787C12.3203 37.4413 12 38.2044 12 39V78H88V39C88 38.2044 87.6797 37.4413 87.1096 36.8787C86.5395 36.3161 85.7663 36 84.96 36H15.04Z" fill="#8D96A2"/>
<path d="M31.5 71C38.9558 71 45 64.9558 45 57.5C45 50.0442 38.9558 44 31.5 44C24.0442 44 18 50.0442 18 57.5C18 64.9558 24.0442 71 31.5 71Z" fill="#7B8492"/>
<path d="M24.8785 62L21.4394 58.5608C21.3001 58.4215 21.1896 58.2561 21.1142 58.0741C21.0388 57.8921 21 57.697 21 57.5C21 57.303 21.0388 57.1079 21.1142 56.9259C21.1896 56.7439 21.3001 56.5785 21.4394 56.4392L24.8785 53L27 55.1216L24.6217 57.5L27 59.8784L24.8785 62Z" fill="#FAB40B"/>
<path d="M33.8784 53L31.5 50.6216L29.1216 53L27 50.8785L30.4392 47.4394C30.7206 47.158 31.1021 47 31.5 47C31.8979 47 32.2794 47.158 32.5608 47.4394L36 50.8785L33.8784 53Z" fill="#FAB40B"/>
<path d="M31.5 68C31.303 68.0002 31.1078 67.9616 30.9258 67.8861C30.7437 67.8107 30.5784 67.7001 30.4392 67.5606L27 64.1215L29.1216 62L31.5 64.3783L33.8784 62L36 64.1215L32.5608 67.5606C32.4216 67.7001 32.2563 67.8107 32.0742 67.8861C31.8922 67.9616 31.697 68.0002 31.5 68Z" fill="#FAB40B"/>
<path d="M38.1215 62L36 59.8784L38.3783 57.5L36 55.1216L38.1215 53L41.5606 56.4392C41.6999 56.5785 41.8104 56.7439 41.8858 56.9259C41.9612 57.1079 42 57.303 42 57.5C42 57.697 41.9612 57.8921 41.8858 58.0741C41.8104 58.2561 41.6999 58.4215 41.5606 58.5608L38.1215 62Z" fill="#FAB40B"/>
<path d="M31.4294 54.9759L29.4872 56.9181C29.1939 57.2114 29.1939 57.687 29.4872 57.9804L31.4294 59.9226C31.7227 60.2159 32.1983 60.2159 32.4917 59.9226L34.4339 57.9804C34.7272 57.687 34.7272 57.2114 34.4339 56.9181L32.4917 54.9759C32.1983 54.6825 31.7227 54.6825 31.4294 54.9759Z" fill="#FAB40B"/>
<path d="M94 78V82.8C94.0001 83.2203 93.9217 83.6364 93.7692 84.0247C93.6168 84.413 93.3933 84.7658 93.1115 85.063C92.8297 85.3602 92.4951 85.5959 92.1269 85.7567C91.7587 85.9174 91.364 86.0001 90.9655 86H9.03448C8.63596 86.0001 8.24132 85.9174 7.87311 85.7567C7.50489 85.5959 7.17033 85.3602 6.88853 85.063C6.60673 84.7658 6.38322 84.413 6.23076 84.0247C6.0783 83.6364 5.99989 83.2203 6 82.8V78H94Z" fill="#E6E8EA"/>
<path d="M59 78C59.0002 78.3979 58.8424 78.7797 58.5612 79.0613L57.0612 80.5613C56.7796 80.8423 56.3979 81.0001 56 81H44C43.6021 81.0001 43.2204 80.8423 42.9388 80.5613L41.4388 79.0613C41.1576 78.7797 40.9998 78.3979 41 78H59Z" fill="#8D96A2"/>
<path d="M31.5 38C38.9558 38 45 31.9558 45 24.5C45 17.0442 38.9558 11 31.5 11C24.0442 11 18 17.0442 18 24.5C18 31.9558 24.0442 38 31.5 38Z" fill="#B5BAC1"/>
<path d="M30 24H33V19.8H36V17H27V19.8H30V24Z" fill="#94999E"/>
<path d="M39 23H36C36 24.5487 33.9392 25.8571 31.5 25.8571C29.0608 25.8571 27 24.5487 27 23H24C24 25.7596 26.5808 28.0684 30 28.5993V33H33V28.5993C36.4192 28.0684 39 25.7596 39 23Z" fill="#94999E"/>
<path d="M68.5 38C75.9558 38 82 31.9558 82 24.5C82 17.0442 75.9558 11 68.5 11C61.0442 11 55 17.0442 55 24.5C55 31.9558 61.0442 38 68.5 38Z" fill="#F2F2F4"/>
<path d="M68.03 25.8995C68.8598 25.8995 69.5325 25.2268 69.5325 24.397C69.5325 23.5672 68.8598 22.8945 68.03 22.8945C67.2002 22.8945 66.5275 23.5672 66.5275 24.397C66.5275 25.2268 67.2002 25.8995 68.03 25.8995Z" fill="#DFE1E3"/>
<path d="M68.03 21.3927C68.8598 21.3927 69.5325 20.72 69.5325 19.8902C69.5325 19.0604 68.8598 18.3877 68.03 18.3877C67.2002 18.3877 66.5275 19.0604 66.5275 19.8902C66.5275 20.72 67.2002 21.3927 68.03 21.3927Z" fill="#DFE1E3"/>
<path d="M63.5224 25.8995C64.3522 25.8995 65.0249 25.2268 65.0249 24.397C65.0249 23.5672 64.3522 22.8945 63.5224 22.8945C62.6926 22.8945 62.0199 23.5672 62.0199 24.397C62.0199 25.2268 62.6926 25.8995 63.5224 25.8995Z" fill="#DFE1E3"/>
<path d="M72.5374 25.8995C73.3672 25.8995 74.0399 25.2268 74.0399 24.397C74.0399 23.5672 73.3672 22.8945 72.5374 22.8945C71.7076 22.8945 71.0349 23.5672 71.0349 24.397C71.0349 25.2268 71.7076 25.8995 72.5374 25.8995Z" fill="#DFE1E3"/>
<path d="M77.045 25.8995C77.8748 25.8995 78.5475 25.2268 78.5475 24.397C78.5475 23.5672 77.8748 22.8945 77.045 22.8945C76.2152 22.8945 75.5425 23.5672 75.5425 24.397C75.5425 25.2268 76.2152 25.8995 77.045 25.8995Z" fill="#DFE1E3"/>
<path d="M59.015 25.8995C59.8448 25.8995 60.5175 25.2268 60.5175 24.397C60.5175 23.5672 59.8448 22.8945 59.015 22.8945C58.1851 22.8945 57.5125 23.5672 57.5125 24.397C57.5125 25.2268 58.1851 25.8995 59.015 25.8995Z" fill="#DFE1E3"/>
<path d="M68.03 16.8849C68.8598 16.8849 69.5325 16.2122 69.5325 15.3824C69.5325 14.5526 68.8598 13.8799 68.03 13.8799C67.2002 13.8799 66.5275 14.5526 66.5275 15.3824C66.5275 16.2122 67.2002 16.8849 68.03 16.8849Z" fill="#DFE1E3"/>
<path d="M68.03 34.9152C68.8598 34.9152 69.5325 34.2425 69.5325 33.4127C69.5325 32.5828 68.8598 31.9102 68.03 31.9102C67.2002 31.9102 66.5275 32.5828 66.5275 33.4127C66.5275 34.2425 67.2002 34.9152 68.03 34.9152Z" fill="#DFE1E3"/>
<path d="M68.03 30.4073C68.8598 30.4073 69.5325 29.7347 69.5325 28.9048C69.5325 28.075 68.8598 27.4023 68.03 27.4023C67.2002 27.4023 66.5275 28.075 66.5275 28.9048C66.5275 29.7347 67.2002 30.4073 68.03 30.4073Z" fill="#DFE1E3"/>
<path d="M63.5224 30.4073C64.3522 30.4073 65.0249 29.7347 65.0249 28.9048C65.0249 28.075 64.3522 27.4023 63.5224 27.4023C62.6926 27.4023 62.0199 28.075 62.0199 28.9048C62.0199 29.7347 62.6926 30.4073 63.5224 30.4073Z" fill="#DFE1E3"/>
<path d="M63.5224 21.3927C64.3522 21.3927 65.0249 20.72 65.0249 19.8902C65.0249 19.0604 64.3522 18.3877 63.5224 18.3877C62.6926 18.3877 62.0199 19.0604 62.0199 19.8902C62.0199 20.72 62.6926 21.3927 63.5224 21.3927Z" fill="#DFE1E3"/>
<path d="M72.5374 21.3927C73.3672 21.3927 74.0399 20.72 74.0399 19.8902C74.0399 19.0604 73.3672 18.3877 72.5374 18.3877C71.7076 18.3877 71.0349 19.0604 71.0349 19.8902C71.0349 20.72 71.7076 21.3927 72.5374 21.3927Z" fill="#DFE1E3"/>
<path d="M72.5374 30.4073C73.3672 30.4073 74.0399 29.7347 74.0399 28.9048C74.0399 28.075 73.3672 27.4023 72.5374 27.4023C71.7076 27.4023 71.0349 28.075 71.0349 28.9048C71.0349 29.7347 71.7076 30.4073 72.5374 30.4073Z" fill="#DFE1E3"/>
<path d="M68.5 71C75.9558 71 82 64.9558 82 57.5C82 50.0442 75.9558 44 68.5 44C61.0442 44 55 50.0442 55 57.5C55 64.9558 61.0442 71 68.5 71Z" fill="#E6E8EA"/>
<path d="M68 48L62 58.8182L68 65L74 58.8182L68 48Z" fill="#181A20"/>
<path d="M74 58.6L68 57L62 58.6L68 65L74 58.6Z" fill="#3C414F"/>
<path d="M50 56C58.2843 56 65 49.2843 65 41C65 32.7157 58.2843 26 50 26C41.7157 26 35 32.7157 35 41C35 49.2843 41.7157 56 50 56Z" fill="#FAB40B"/>
<path d="M56 37.5003C55.9987 36.3072 55.5241 35.1634 54.6805 34.3198C53.8369 33.4761 52.6931 33.0016 51.5 33.0003V30H48.5V33.0003H45.5C45.303 33.0003 45.108 33.0391 44.926 33.1144C44.744 33.1898 44.5786 33.3003 44.4393 33.4396C44.3 33.5789 44.1895 33.7443 44.1142 33.9262C44.0388 34.1082 44 34.3033 44 34.5003V46.5003C44 46.6973 44.0388 46.8923 44.1142 47.0743C44.1895 47.2563 44.3 47.4217 44.4393 47.5609C44.5786 47.7002 44.744 47.8107 44.926 47.8861C45.108 47.9615 45.303 48.0003 45.5 48.0003H48.5V51H51.5V48.0003C52.3689 48.0008 53.2194 47.7496 53.9486 47.2771C54.6778 46.8045 55.2545 46.1308 55.6089 45.3375C55.9633 44.5441 56.0803 43.6651 55.9457 42.8066C55.8111 41.9482 55.4307 41.1471 54.8505 40.5003C55.5913 39.6767 56.0008 38.608 56 37.5003ZM47 36.0003H51.5C51.8978 36.0003 52.2794 36.1583 52.5607 36.4396C52.842 36.7209 53 37.1024 53 37.5003C53 37.8981 52.842 38.2796 52.5607 38.5609C52.2794 38.8422 51.8978 39.0003 51.5 39.0003H47V36.0003ZM51.5 45.0003H47V42.0003H51.5C51.8978 42.0003 52.2794 42.1583 52.5607 42.4396C52.842 42.7209 53 43.1025 53 43.5003C53 43.8981 52.842 44.2796 52.5607 44.5609C52.2794 44.8422 51.8978 45.0003 51.5 45.0003Z" fill="#FCEDC0"/>
</svg>
