<svg width="100" height="100" viewBox="0 0 100 100" fill="none" xmlns="http://www.w3.org/2000/svg">
<path d="M65.625 46.875H34.375C33.5121 46.875 32.8125 47.5746 32.8125 48.4375V78.125C32.8125 78.9879 33.5121 79.6875 34.375 79.6875H65.625C66.4879 79.6875 67.1875 78.9879 67.1875 78.125V48.4375C67.1875 47.5746 66.4879 46.875 65.625 46.875Z" fill="#FDC53D"/>
<path d="M39.0625 53.125H60.9375V73.4375H39.0625V53.125Z" fill="#FAB40B"/>
<path d="M10.9375 32.8125H32.8125V35.9375H10.9375V32.8125Z" fill="#8D96A2"/>
<path d="M23.537 34.9236L19.2297 23.4375H14.0625V20.3125H20.3125C20.6306 20.3125 20.9411 20.4095 21.2025 20.5907C21.4639 20.7719 21.6639 21.0285 21.7755 21.3264L26.463 33.8264L23.537 34.9236Z" fill="#8D96A2"/>
<path d="M17.1875 43.75H28.125V46.875H17.1875V43.75Z" fill="#8D96A2"/>
<path d="M17.1875 65.625H28.125V68.75H17.1875V65.625Z" fill="#8D96A2"/>
<path d="M18.75 57.8124H10.9375V54.6874H17.8432L23.6434 44.5371L26.3566 46.0876L20.1066 57.0251C19.9699 57.2643 19.7725 57.463 19.5343 57.6013C19.296 57.7396 19.0255 57.8124 18.75 57.8124Z" fill="#8D96A2"/>
<path d="M18.75 79.6873H10.9375V76.5623H17.8432L23.6434 66.4121L26.3566 67.9626L20.1066 78.9001C19.9699 79.1393 19.7725 79.338 19.5343 79.4763C19.296 79.6145 19.0255 79.6874 18.75 79.6873Z" fill="#8D96A2"/>
<path d="M67.1875 32.8125H89.0625V35.9375H67.1875V32.8125Z" fill="#8D96A2"/>
<path d="M76.463 34.9236L73.537 33.8264L78.2245 21.3264C78.3362 21.0285 78.5361 20.7719 78.7975 20.5907C79.0589 20.4095 79.3694 20.3125 79.6875 20.3125H85.9375V23.4375H80.7703L76.463 34.9236Z" fill="#8D96A2"/>
<path d="M71.875 43.75H82.8125V46.875H71.875V43.75Z" fill="#8D96A2"/>
<path d="M71.875 65.625H82.8125V68.75H71.875V65.625Z" fill="#8D96A2"/>
<path d="M89.0625 57.8124H81.25C80.9746 57.8124 80.704 57.7396 80.4658 57.6013C80.2275 57.463 80.0301 57.2643 79.8934 57.0251L73.6434 46.0876L76.3566 44.5371L82.1568 54.6874H89.0625V57.8124Z" fill="#8D96A2"/>
<path d="M89.0625 79.6873H81.25C80.9746 79.6874 80.704 79.6145 80.4658 79.4763C80.2275 79.338 80.0301 79.1393 79.8934 78.9001L73.6434 67.9626L76.3566 66.4121L82.1568 76.5623H89.0625V79.6873Z" fill="#8D96A2"/>
<path d="M56.25 46.875V32.8125C56.25 31.1549 55.5915 29.5652 54.4194 28.3931C53.2473 27.221 51.6576 26.5625 50 26.5625C48.3424 26.5625 46.7527 27.221 45.5806 28.3931C44.4085 29.5652 43.75 31.1549 43.75 32.8125V46.875H37.5V32.8125C37.5 31.171 37.8233 29.5455 38.4515 28.029C39.0797 26.5124 40.0004 25.1344 41.1612 23.9737C42.3219 22.8129 43.6999 21.8922 45.2164 21.264C46.733 20.6358 48.3585 20.3125 50 20.3125H50C51.6415 20.3125 53.267 20.6358 54.7836 21.264C56.3001 21.8922 57.6781 22.8129 58.8388 23.9737C59.9996 25.1344 60.9203 26.5124 61.5485 28.029C62.1767 29.5455 62.5 31.171 62.5 32.8125V46.875H56.25Z" fill="#E4E9F2"/>
<path d="M37.5 34.375H43.75V37.5H37.5V34.375Z" fill="#8D96A2"/>
<path d="M45.3125 60.9375V65.625L50 68.75L54.6875 65.625L54.6873 60.9373L50 57.8125L45.3125 60.9375Z" fill="#EB8117"/>
<path d="M7.8125 37.5C9.53839 37.5 10.9375 36.1009 10.9375 34.375C10.9375 32.6491 9.53839 31.25 7.8125 31.25C6.08661 31.25 4.6875 32.6491 4.6875 34.375C4.6875 36.1009 6.08661 37.5 7.8125 37.5Z" fill="#8D96A2"/>
<path d="M7.8125 39.0625C6.8854 39.0625 5.97912 38.7876 5.20827 38.2725C4.43741 37.7574 3.8366 37.0254 3.48182 36.1688C3.12703 35.3123 3.0342 34.3698 3.21507 33.4605C3.39594 32.5512 3.84238 31.716 4.49794 31.0604C5.1535 30.4049 5.98873 29.9584 6.89802 29.7776C7.8073 29.5967 8.7498 29.6895 9.60633 30.0443C10.4629 30.3991 11.1949 30.9999 11.71 31.7708C12.2251 32.5416 12.5 33.4479 12.5 34.375C12.4986 35.6178 12.0043 36.8093 11.1255 37.688C10.2468 38.5668 9.05528 39.0611 7.8125 39.0625ZM7.8125 32.8125C7.50347 32.8125 7.20138 32.9041 6.94442 33.0758C6.68747 33.2475 6.4872 33.4916 6.36894 33.7771C6.25068 34.0626 6.21973 34.3767 6.28002 34.6798C6.34031 34.9829 6.48913 35.2613 6.70765 35.4799C6.92617 35.6984 7.20458 35.8472 7.50767 35.9075C7.81077 35.9678 8.12493 35.9368 8.41044 35.8186C8.69595 35.7003 8.93998 35.5 9.11167 35.2431C9.28336 34.9861 9.375 34.684 9.375 34.375C9.37453 33.9607 9.20975 33.5636 8.91683 33.2707C8.62391 32.9777 8.22676 32.813 7.8125 32.8125Z" fill="#F2F2F4"/>
<path d="M10.9375 25C12.6634 25 14.0625 23.6009 14.0625 21.875C14.0625 20.1491 12.6634 18.75 10.9375 18.75C9.21161 18.75 7.8125 20.1491 7.8125 21.875C7.8125 23.6009 9.21161 25 10.9375 25Z" fill="#8D96A2"/>
<path d="M10.9375 26.5625C10.0104 26.5625 9.10412 26.2876 8.33327 25.7725C7.56241 25.2574 6.9616 24.5254 6.60682 23.6688C6.25203 22.8123 6.1592 21.8698 6.34007 20.9605C6.52094 20.0512 6.96738 19.216 7.62294 18.5604C8.2785 17.9049 9.11373 17.4584 10.023 17.2776C10.9323 17.0967 11.8748 17.1895 12.7313 17.5443C13.5879 17.8991 14.3199 18.4999 14.835 19.2708C15.3501 20.0416 15.625 20.9479 15.625 21.875C15.6236 23.1178 15.1293 24.3093 14.2505 25.188C13.3718 26.0668 12.1803 26.5611 10.9375 26.5625ZM10.9375 20.3125C10.6285 20.3125 10.3264 20.4041 10.0694 20.5758C9.81247 20.7475 9.6122 20.9915 9.49394 21.2771C9.37568 21.5626 9.34474 21.8767 9.40503 22.1798C9.46531 22.4829 9.61413 22.7613 9.83265 22.9799C10.0512 23.1984 10.3296 23.3472 10.6327 23.4075C10.9358 23.4678 11.2499 23.4368 11.5354 23.3186C11.821 23.2003 12.065 23 12.2367 22.7431C12.4084 22.4861 12.5 22.184 12.5 21.875C12.4995 21.4607 12.3348 21.0636 12.0418 20.7707C11.7489 20.4777 11.3518 20.313 10.9375 20.3125Z" fill="#F2F2F4"/>
<path d="M14.0625 48.4375C15.7884 48.4375 17.1875 47.0384 17.1875 45.3125C17.1875 43.5866 15.7884 42.1875 14.0625 42.1875C12.3366 42.1875 10.9375 43.5866 10.9375 45.3125C10.9375 47.0384 12.3366 48.4375 14.0625 48.4375Z" fill="#8D96A2"/>
<path d="M14.0625 50C13.1354 50 12.2291 49.7251 11.4583 49.21C10.6874 48.695 10.0866 47.9629 9.73182 47.1063C9.37703 46.2498 9.2842 45.3073 9.46507 44.398C9.64594 43.4887 10.0924 42.6535 10.7479 41.9979C11.4035 41.3424 12.2387 40.8959 13.148 40.7151C14.0573 40.5342 14.9998 40.627 15.8563 40.9818C16.7129 41.3366 17.4449 41.9374 17.96 42.7083C18.4751 43.4791 18.75 44.3854 18.75 45.3125C18.7486 46.5553 18.2543 47.7468 17.3755 48.6255C16.4968 49.5043 15.3053 49.9986 14.0625 50ZM14.0625 43.75C13.7535 43.75 13.4514 43.8416 13.1944 44.0133C12.9375 44.185 12.7372 44.4291 12.6189 44.7146C12.5007 45.0001 12.4697 45.3142 12.53 45.6173C12.5903 45.9204 12.7391 46.1988 12.9576 46.4174C13.1762 46.6359 13.4546 46.7847 13.7577 46.845C14.0608 46.9053 14.3749 46.8743 14.6604 46.7561C14.946 46.6378 15.19 46.4375 15.3617 46.1806C15.5334 45.9236 15.625 45.6215 15.625 45.3125C15.6245 44.8983 15.4598 44.5011 15.1668 44.2082C14.8739 43.9153 14.4768 43.7505 14.0625 43.75Z" fill="#F2F2F4"/>
<path d="M7.8125 59.375C9.53839 59.375 10.9375 57.9759 10.9375 56.25C10.9375 54.5241 9.53839 53.125 7.8125 53.125C6.08661 53.125 4.6875 54.5241 4.6875 56.25C4.6875 57.9759 6.08661 59.375 7.8125 59.375Z" fill="#8D96A2"/>
<path d="M7.8125 60.9375C6.8854 60.9375 5.97912 60.6626 5.20827 60.1475C4.43741 59.6325 3.8366 58.9004 3.48182 58.0438C3.12703 57.1873 3.0342 56.2448 3.21507 55.3355C3.39594 54.4262 3.84238 53.591 4.49794 52.9354C5.1535 52.2799 5.98873 51.8334 6.89802 51.6526C7.8073 51.4717 8.7498 51.5645 9.60633 51.9193C10.4629 52.2741 11.1949 52.8749 11.71 53.6458C12.2251 54.4166 12.5 55.3229 12.5 56.25C12.4986 57.4928 12.0043 58.6843 11.1255 59.563C10.2468 60.4418 9.05528 60.9361 7.8125 60.9375ZM7.8125 54.6875C7.50347 54.6875 7.20138 54.7791 6.94442 54.9508C6.68747 55.1225 6.4872 55.3666 6.36894 55.6521C6.25068 55.9376 6.21973 56.2517 6.28002 56.5548C6.34031 56.8579 6.48913 57.1363 6.70765 57.3549C6.92617 57.5734 7.20458 57.7222 7.50767 57.7825C7.81077 57.8428 8.12493 57.8118 8.41044 57.6936C8.69595 57.5753 8.93998 57.375 9.11167 57.1181C9.28336 56.8611 9.375 56.559 9.375 56.25C9.37453 55.8357 9.20975 55.4386 8.91683 55.1457C8.62391 54.8528 8.22676 54.688 7.8125 54.6875Z" fill="#F2F2F4"/>
<path d="M14.0625 70.3125C15.7884 70.3125 17.1875 68.9134 17.1875 67.1875C17.1875 65.4616 15.7884 64.0625 14.0625 64.0625C12.3366 64.0625 10.9375 65.4616 10.9375 67.1875C10.9375 68.9134 12.3366 70.3125 14.0625 70.3125Z" fill="#8D96A2"/>
<path d="M14.0625 71.875C13.1354 71.875 12.2291 71.6001 11.4583 71.085C10.6874 70.57 10.0866 69.8379 9.73182 68.9813C9.37703 68.1248 9.2842 67.1823 9.46507 66.273C9.64594 65.3637 10.0924 64.5285 10.7479 63.8729C11.4035 63.2174 12.2387 62.7709 13.148 62.5901C14.0573 62.4092 14.9998 62.502 15.8563 62.8568C16.7129 63.2116 17.4449 63.8124 17.96 64.5833C18.4751 65.3541 18.75 66.2604 18.75 67.1875C18.7486 68.4303 18.2543 69.6218 17.3755 70.5005C16.4968 71.3793 15.3053 71.8736 14.0625 71.875ZM14.0625 65.625C13.7535 65.625 13.4514 65.7166 13.1944 65.8883C12.9375 66.06 12.7372 66.3041 12.6189 66.5896C12.5007 66.8751 12.4697 67.1892 12.53 67.4923C12.5903 67.7954 12.7391 68.0738 12.9576 68.2924C13.1762 68.5109 13.4546 68.6597 13.7577 68.72C14.0608 68.7803 14.3749 68.7493 14.6604 68.6311C14.946 68.5128 15.19 68.3125 15.3617 68.0556C15.5334 67.7986 15.625 67.4965 15.625 67.1875C15.6245 66.7732 15.4598 66.3761 15.1668 66.0832C14.8739 65.7903 14.4768 65.6255 14.0625 65.625Z" fill="#F2F2F4"/>
<path d="M7.8125 81.25C9.53839 81.25 10.9375 79.8509 10.9375 78.125C10.9375 76.3991 9.53839 75 7.8125 75C6.08661 75 4.6875 76.3991 4.6875 78.125C4.6875 79.8509 6.08661 81.25 7.8125 81.25Z" fill="#8D96A2"/>
<path d="M7.8125 82.8125C6.8854 82.8125 5.97912 82.5376 5.20827 82.0225C4.43741 81.5075 3.8366 80.7754 3.48182 79.9188C3.12703 79.0623 3.0342 78.1198 3.21507 77.2105C3.39594 76.3012 3.84238 75.466 4.49794 74.8104C5.1535 74.1549 5.98873 73.7084 6.89802 73.5276C7.8073 73.3467 8.7498 73.4395 9.60633 73.7943C10.4629 74.1491 11.1949 74.7499 11.71 75.5208C12.2251 76.2916 12.5 77.1979 12.5 78.125C12.4986 79.3678 12.0043 80.5593 11.1255 81.438C10.2468 82.3168 9.05528 82.8111 7.8125 82.8125ZM7.8125 76.5625C7.50347 76.5625 7.20138 76.6541 6.94442 76.8258C6.68747 76.9975 6.4872 77.2416 6.36894 77.5271C6.25068 77.8126 6.21973 78.1267 6.28002 78.4298C6.34031 78.7329 6.48913 79.0113 6.70765 79.2299C6.92617 79.4484 7.20458 79.5972 7.50767 79.6575C7.81077 79.7178 8.12493 79.6868 8.41044 79.5686C8.69595 79.4503 8.93998 79.25 9.11167 78.9931C9.28336 78.7361 9.375 78.434 9.375 78.125C9.37453 77.7107 9.20975 77.3136 8.91683 77.0207C8.62391 76.7278 8.22676 76.563 7.8125 76.5625Z" fill="#F2F2F4"/>
<path d="M92.1875 37.5C93.9134 37.5 95.3125 36.1009 95.3125 34.375C95.3125 32.6491 93.9134 31.25 92.1875 31.25C90.4616 31.25 89.0625 32.6491 89.0625 34.375C89.0625 36.1009 90.4616 37.5 92.1875 37.5Z" fill="#8D96A2"/>
<path d="M92.1875 39.0625C91.2604 39.0625 90.3541 38.7876 89.5833 38.2725C88.8124 37.7574 88.2116 37.0254 87.8568 36.1688C87.502 35.3123 87.4092 34.3698 87.5901 33.4605C87.7709 32.5512 88.2174 31.716 88.8729 31.0604C89.5285 30.4049 90.3637 29.9584 91.273 29.7776C92.1823 29.5967 93.1248 29.6895 93.9813 30.0443C94.8379 30.3991 95.57 30.9999 96.085 31.7708C96.6001 32.5416 96.875 33.4479 96.875 34.375C96.8736 35.6178 96.3793 36.8093 95.5005 37.688C94.6218 38.5668 93.4303 39.0611 92.1875 39.0625ZM92.1875 32.8125C91.8785 32.8125 91.5764 32.9041 91.3194 33.0758C91.0625 33.2475 90.8622 33.4916 90.7439 33.7771C90.6257 34.0626 90.5947 34.3767 90.655 34.6798C90.7153 34.9829 90.8641 35.2613 91.0826 35.4799C91.3012 35.6984 91.5796 35.8472 91.8827 35.9075C92.1858 35.9678 92.4999 35.9368 92.7854 35.8186C93.071 35.7003 93.315 35.5 93.4867 35.2431C93.6584 34.9861 93.75 34.684 93.75 34.375C93.7495 33.9607 93.5848 33.5636 93.2918 33.2707C92.9989 32.9777 92.6018 32.813 92.1875 32.8125Z" fill="#F2F2F4"/>
<path d="M89.0625 25C90.7884 25 92.1875 23.6009 92.1875 21.875C92.1875 20.1491 90.7884 18.75 89.0625 18.75C87.3366 18.75 85.9375 20.1491 85.9375 21.875C85.9375 23.6009 87.3366 25 89.0625 25Z" fill="#8D96A2"/>
<path d="M89.0625 26.5625C88.1354 26.5625 87.2291 26.2876 86.4583 25.7725C85.6874 25.2574 85.0866 24.5254 84.7318 23.6688C84.377 22.8123 84.2842 21.8698 84.4651 20.9605C84.6459 20.0512 85.0924 19.216 85.7479 18.5604C86.4035 17.9049 87.2387 17.4584 88.148 17.2776C89.0573 17.0967 89.9998 17.1895 90.8563 17.5443C91.7129 17.8991 92.445 18.4999 92.96 19.2708C93.4751 20.0416 93.75 20.9479 93.75 21.875C93.7486 23.1178 93.2543 24.3093 92.3755 25.188C91.4968 26.0668 90.3053 26.5611 89.0625 26.5625ZM89.0625 20.3125C88.7535 20.3125 88.4514 20.4041 88.1944 20.5758C87.9375 20.7475 87.7372 20.9915 87.6189 21.2771C87.5007 21.5626 87.4697 21.8767 87.53 22.1798C87.5903 22.4829 87.7391 22.7613 87.9576 22.9799C88.1762 23.1984 88.4546 23.3472 88.7577 23.4075C89.0608 23.4678 89.3749 23.4368 89.6604 23.3186C89.946 23.2003 90.19 23 90.3617 22.7431C90.5334 22.4861 90.625 22.184 90.625 21.875C90.6245 21.4607 90.4598 21.0636 90.1668 20.7707C89.8739 20.4777 89.4768 20.313 89.0625 20.3125Z" fill="#F2F2F4"/>
<path d="M85.9375 48.4375C87.6634 48.4375 89.0625 47.0384 89.0625 45.3125C89.0625 43.5866 87.6634 42.1875 85.9375 42.1875C84.2116 42.1875 82.8125 43.5866 82.8125 45.3125C82.8125 47.0384 84.2116 48.4375 85.9375 48.4375Z" fill="#8D96A2"/>
<path d="M85.9375 50C85.0104 50 84.1041 49.7251 83.3333 49.21C82.5624 48.695 81.9616 47.9629 81.6068 47.1063C81.252 46.2498 81.1592 45.3073 81.3401 44.398C81.5209 43.4887 81.9674 42.6535 82.6229 41.9979C83.2785 41.3424 84.1137 40.8959 85.023 40.7151C85.9323 40.5342 86.8748 40.627 87.7313 40.9818C88.5879 41.3366 89.32 41.9374 89.835 42.7083C90.3501 43.4791 90.625 44.3854 90.625 45.3125C90.6236 46.5553 90.1293 47.7468 89.2505 48.6255C88.3718 49.5043 87.1803 49.9986 85.9375 50ZM85.9375 43.75C85.6285 43.75 85.3264 43.8416 85.0694 44.0133C84.8125 44.185 84.6122 44.4291 84.4939 44.7146C84.3757 45.0001 84.3447 45.3142 84.405 45.6173C84.4653 45.9204 84.6141 46.1988 84.8326 46.4174C85.0512 46.6359 85.3296 46.7847 85.6327 46.845C85.9358 46.9053 86.2499 46.8743 86.5354 46.7561C86.821 46.6378 87.065 46.4375 87.2367 46.1806C87.4084 45.9236 87.5 45.6215 87.5 45.3125C87.4995 44.8983 87.3348 44.5011 87.0418 44.2082C86.7489 43.9153 86.3518 43.7505 85.9375 43.75Z" fill="#F2F2F4"/>
<path d="M92.1875 59.375C93.9134 59.375 95.3125 57.9759 95.3125 56.25C95.3125 54.5241 93.9134 53.125 92.1875 53.125C90.4616 53.125 89.0625 54.5241 89.0625 56.25C89.0625 57.9759 90.4616 59.375 92.1875 59.375Z" fill="#8D96A2"/>
<path d="M92.1875 60.9375C91.2604 60.9375 90.3541 60.6626 89.5833 60.1475C88.8124 59.6325 88.2116 58.9004 87.8568 58.0438C87.502 57.1873 87.4092 56.2448 87.5901 55.3355C87.7709 54.4262 88.2174 53.591 88.8729 52.9354C89.5285 52.2799 90.3637 51.8334 91.273 51.6526C92.1823 51.4717 93.1248 51.5645 93.9813 51.9193C94.8379 52.2741 95.57 52.8749 96.085 53.6458C96.6001 54.4166 96.875 55.3229 96.875 56.25C96.8736 57.4928 96.3793 58.6843 95.5005 59.563C94.6218 60.4418 93.4303 60.9361 92.1875 60.9375ZM92.1875 54.6875C91.8785 54.6875 91.5764 54.7791 91.3194 54.9508C91.0625 55.1225 90.8622 55.3666 90.7439 55.6521C90.6257 55.9376 90.5947 56.2517 90.655 56.5548C90.7153 56.8579 90.8641 57.1363 91.0826 57.3549C91.3012 57.5734 91.5796 57.7222 91.8827 57.7825C92.1858 57.8428 92.4999 57.8118 92.7854 57.6936C93.071 57.5753 93.315 57.375 93.4867 57.1181C93.6584 56.8611 93.75 56.559 93.75 56.25C93.7495 55.8357 93.5848 55.4386 93.2918 55.1457C92.9989 54.8528 92.6018 54.688 92.1875 54.6875Z" fill="#F2F2F4"/>
<path d="M85.9375 70.3125C87.6634 70.3125 89.0625 68.9134 89.0625 67.1875C89.0625 65.4616 87.6634 64.0625 85.9375 64.0625C84.2116 64.0625 82.8125 65.4616 82.8125 67.1875C82.8125 68.9134 84.2116 70.3125 85.9375 70.3125Z" fill="#8D96A2"/>
<path d="M85.9375 71.875C85.0104 71.875 84.1041 71.6001 83.3333 71.085C82.5624 70.57 81.9616 69.8379 81.6068 68.9813C81.252 68.1248 81.1592 67.1823 81.3401 66.273C81.5209 65.3637 81.9674 64.5285 82.6229 63.8729C83.2785 63.2174 84.1137 62.7709 85.023 62.5901C85.9323 62.4092 86.8748 62.502 87.7313 62.8568C88.5879 63.2116 89.32 63.8124 89.835 64.5833C90.3501 65.3541 90.625 66.2604 90.625 67.1875C90.6236 68.4303 90.1293 69.6218 89.2505 70.5005C88.3718 71.3793 87.1803 71.8736 85.9375 71.875ZM85.9375 65.625C85.6285 65.625 85.3264 65.7166 85.0694 65.8883C84.8125 66.06 84.6122 66.3041 84.4939 66.5896C84.3757 66.8751 84.3447 67.1892 84.405 67.4923C84.4653 67.7954 84.6141 68.0738 84.8326 68.2924C85.0512 68.5109 85.3296 68.6597 85.6327 68.72C85.9358 68.7803 86.2499 68.7493 86.5354 68.6311C86.821 68.5128 87.065 68.3125 87.2367 68.0556C87.4084 67.7986 87.5 67.4965 87.5 67.1875C87.4995 66.7732 87.3348 66.3761 87.0418 66.0832C86.7489 65.7903 86.3518 65.6255 85.9375 65.625Z" fill="#F2F2F4"/>
<path d="M92.1875 81.25C93.9134 81.25 95.3125 79.8509 95.3125 78.125C95.3125 76.3991 93.9134 75 92.1875 75C90.4616 75 89.0625 76.3991 89.0625 78.125C89.0625 79.8509 90.4616 81.25 92.1875 81.25Z" fill="#8D96A2"/>
<path d="M92.1875 82.8125C91.2604 82.8125 90.3541 82.5376 89.5833 82.0225C88.8124 81.5075 88.2116 80.7754 87.8568 79.9188C87.502 79.0623 87.4092 78.1198 87.5901 77.2105C87.7709 76.3012 88.2174 75.466 88.8729 74.8104C89.5285 74.1549 90.3637 73.7084 91.273 73.5276C92.1823 73.3467 93.1248 73.4395 93.9813 73.7943C94.8379 74.1491 95.57 74.7499 96.085 75.5208C96.6001 76.2916 96.875 77.1979 96.875 78.125C96.8736 79.3678 96.3793 80.5593 95.5005 81.438C94.6218 82.3168 93.4303 82.8111 92.1875 82.8125ZM92.1875 76.5625C91.8785 76.5625 91.5764 76.6541 91.3194 76.8258C91.0625 76.9975 90.8622 77.2416 90.7439 77.5271C90.6257 77.8126 90.5947 78.1267 90.655 78.4298C90.7153 78.7329 90.8641 79.0113 91.0826 79.2299C91.3012 79.4484 91.5796 79.5972 91.8827 79.6575C92.1858 79.7178 92.4999 79.6868 92.7854 79.5686C93.071 79.4503 93.315 79.25 93.4867 78.9931C93.6584 78.7361 93.75 78.434 93.75 78.125C93.7495 77.7107 93.5848 77.3136 93.2918 77.0207C92.9989 76.7278 92.6018 76.563 92.1875 76.5625Z" fill="#F2F2F4"/>
</svg>
