<svg width="0" height="0" class="hidden">
	<symbol fill="none" xmlns="http://www.w3.org/2000/svg" viewBox="0 0 18 19" id="phone">
		<path d="M16.5556 12.5259C15.4536 12.5259 14.3716 12.3535 13.3462 12.0147C12.8437 11.8433 12.226 12.0005 11.9194 12.3155L9.89547 13.8433C7.54831 12.5904 6.1025 11.145 4.86669 8.81549L6.34958 6.8443C6.73484 6.45955 6.87303 5.89752 6.70747 5.37017C6.36716 4.33939 6.19428 3.25784 6.19428 2.15534C6.19433 1.35889 5.54638 0.710938 4.74997 0.710938H1.44436C0.647951 0.710938 0 1.35889 0 2.1553C0 11.2842 7.42676 18.7109 16.5556 18.7109C17.352 18.7109 18 18.063 18 17.2666V13.9702C18 13.1738 17.352 12.5259 16.5556 12.5259Z" fill="#FAB40B">
		</path>
	</symbol>
	<symbol fill="none" xmlns="http://www.w3.org/2000/svg" viewBox="0 0 14 13" id="star">
		<path d="M6.04894 0.927052C6.3483 0.0057416 7.6517 0.00574088 7.95106 0.927052L8.79611 3.52786C8.92999 3.93989 9.31394 4.21885 9.74717 4.21885H12.4818C13.4505 4.21885 13.8533 5.45846 13.0696 6.02786L10.8572 7.63525C10.5067 7.8899 10.3601 8.34127 10.494 8.75329L11.339 11.3541C11.6384 12.2754 10.5839 13.0415 9.80017 12.4721L7.58779 10.8647C7.2373 10.6101 6.7627 10.6101 6.41222 10.8647L4.19983 12.4721C3.41612 13.0415 2.36164 12.2754 2.66099 11.3541L3.50604 8.75329C3.63992 8.34127 3.49326 7.8899 3.14277 7.63525L0.930391 6.02787C0.146677 5.45846 0.549452 4.21885 1.51818 4.21885H4.25283C4.68606 4.21885 5.07001 3.93989 5.20389 3.52786L6.04894 0.927052Z" fill="#FDBE0A">
		</path>
	</symbol>
</svg>
