<svg width="0" height="0" class="hidden">
  <symbol fill="none" xmlns="http://www.w3.org/2000/svg" viewBox="0 0 18 19" id="phone">
    <path d="M16.5556 12.5259C15.4536 12.5259 14.3716 12.3535 13.3462 12.0147C12.8437 11.8433 12.226 12.0005 11.9194 12.3155L9.89547 13.8433C7.54831 12.5904 6.1025 11.145 4.86669 8.81549L6.34958 6.8443C6.73484 6.45955 6.87303 5.89752 6.70747 5.37017C6.36716 4.33939 6.19428 3.25784 6.19428 2.15534C6.19433 1.35889 5.54638 0.710938 4.74997 0.710938H1.44436C0.647951 0.710938 0 1.35889 0 2.1553C0 11.2842 7.42676 18.7109 16.5556 18.7109C17.352 18.7109 18 18.063 18 17.2666V13.9702C18 13.1738 17.352 12.5259 16.5556 12.5259Z" fill="#FAB40B"></path>
  </symbol>
</svg>