<svg width="100" height="100" viewBox="0 0 100 100" fill="none" xmlns="http://www.w3.org/2000/svg">
<path d="M43 20H47V29H43V20Z" fill="#8D96A2"/>
<path d="M60 28H64V37H60V28Z" fill="#FAB40B"/>
<path d="M76 23H80V44H76V23Z" fill="#8D96A2"/>
<path d="M51 23H56V41H51V23Z" fill="#FAB40B"/>
<path d="M68 28H72V50H68V28Z" fill="#8D96A2"/>
<path d="M66.2839 21C65.9739 21.0002 65.6731 20.8887 65.4311 20.684L59.4302 15.6129L54.8148 19.2694C54.5887 19.4483 54.3158 19.5488 54.0334 19.5571C53.7511 19.5653 53.4732 19.4809 53.2382 19.3155L45.705 14.0108L38.2214 17.9632L37 15.3833L45.1924 11.0566C45.4077 10.9429 45.6477 10.8913 45.8879 10.9071C46.1282 10.9229 46.3602 11.0055 46.5605 11.1466L53.9492 16.3495L58.638 12.635C58.8802 12.4431 59.1759 12.3417 59.4786 12.3467C59.7813 12.3517 60.0738 12.4629 60.3102 12.6626L66.1829 17.6252L69.4149 14.2112C69.671 13.9408 70.0183 13.7888 70.3804 13.7888H76.6419L83.0689 7L85 9.03976L78.173 16.2509C77.9169 16.5214 77.5696 16.6733 77.2074 16.6733H70.9459L67.2497 20.5776C67.123 20.7117 66.9724 20.818 66.8066 20.8905C66.6409 20.963 66.4632 21.0002 66.2839 21Z" fill="#E6E8EA"/>
<path d="M77.7854 84.3543C77.6174 84.6896 77.3587 84.9716 77.0383 85.1687C76.7179 85.3657 76.3486 85.4699 75.972 85.4695C75.7536 85.4692 75.5366 85.4342 75.3293 85.3658L68.7952 83.2L59.0974 85.6123C58.7427 85.7011 58.3832 85.7698 58.0206 85.818C57.5428 85.886 57.0608 85.9201 56.5781 85.92C54.8683 85.9199 53.185 85.5 51.6775 84.6975C50.17 83.895 48.885 82.7348 47.9366 81.3198L44.4755 76.1569L43.973 75.4072L40.0813 69.6V90H12.7346V75.5347L12.3672 75.1029C11.1347 73.6537 10.3444 71.8843 10.0896 70.0031C9.83481 68.122 10.1261 66.2076 10.9291 64.4856C11.7321 62.7637 13.0133 61.306 14.6218 60.2845C16.2302 59.2629 18.0988 58.7201 20.0071 58.72H23.6733L26.4079 56H34.6119L37.3466 58.72H41.9682C43.0734 58.7199 44.1622 58.9863 45.1413 59.4965C46.1203 60.0066 46.9604 60.7453 47.5896 61.6491L52.8538 69.2124L57.8566 76.4H69.6122C70.6373 76.3999 71.6494 76.6292 72.5734 77.0709C73.4973 77.5126 74.3096 78.1554 74.9499 78.9517L77.5564 82.1919C77.7982 82.493 77.9482 82.8566 77.9888 83.2398C78.0294 83.623 77.9588 84.0097 77.7854 84.3543Z" fill="#F2F2F4"/>
<path d="M58.1282 82.577L55.3297 79.2013C54.0817 77.6941 52.451 76.5242 50.5961 75.8053C48.7412 75.0864 46.7252 74.843 44.744 75.0986L44 75.1947L44.5322 75.9653L48.1977 81.2718C49.2022 82.7262 50.5631 83.9187 52.1597 84.7435C53.7562 85.5683 55.539 85.9999 57.3498 86C57.861 86.0001 58.3716 85.9651 58.8776 85.8951C59.029 85.3239 59.0401 84.7265 58.91 84.1504C58.7799 83.5743 58.5122 83.0356 58.1282 82.577Z" fill="#DFE1E3"/>
<path d="M53 69.2124L44.5931 76.1569L40.1839 69.6V90H12.744V75.5347L12.3752 75.1029C11.1385 73.6537 10.3456 71.8843 10.0899 70.0031C9.83425 68.122 10.1265 66.2076 10.9322 64.4856C11.738 62.7637 13.0236 61.306 14.6375 60.2845C16.2514 59.2629 18.1264 58.7201 20.0413 58.72H23.7199L26.4639 56H34.6959L37.4399 58.72H42.0772C43.1862 58.7199 44.2788 58.9863 45.2611 59.4965C46.2435 60.0066 47.0865 60.7453 47.7178 61.6491L53 69.2124Z" fill="#FAB40B"/>
<path d="M39 39V49.8762C39 50.9817 38.5822 52.0436 37.8354 52.8365C37.0886 53.6295 36.0715 54.0911 35 54.1233V55.5L34.0817 56.7633L31 61L27 55.5V39H39Z" fill="#F2F2F4"/>
<path d="M24.8071 43.6342C24.3372 42.9139 24.0619 42.0795 24.0093 41.2155C23.9566 40.3515 24.1285 39.4887 24.5073 38.7144C24.9064 37.8988 25.5199 37.2128 26.2791 36.7334C27.0383 36.2539 27.9131 36 28.8055 36H37.7551C38.0499 36 38.3418 36.0593 38.6142 36.1746C38.8866 36.2899 39.1341 36.4589 39.3425 36.6719C39.551 36.8849 39.7163 37.1378 39.8292 37.4161C39.942 37.6945 40 37.9928 40 38.294C40 38.7754 39.8517 39.2446 39.5763 39.6351C39.3008 40.0257 38.9121 40.3178 38.4651 40.47L36.1371 41.2632L29.6986 39.9474V42.5789L26.3506 46L24.8071 43.6342Z" fill="#B36F42"/>
<path d="M34 54.0603V55.5933L33.0817 57C32.2047 56.7628 31.4231 56.1923 30.8638 55.3812C30.3044 54.5701 30.0001 53.5658 30 52.5311V51L30.195 51.4459C30.5366 52.2324 31.0624 52.8939 31.7134 53.356C32.3644 53.8182 33.1147 54.0628 33.88 54.0622C33.92 54.0622 33.96 54.0622 34 54.0603Z" fill="#DFE1E3"/>
<path d="M22.9942 66.609C22.5181 66.014 21.6498 65.9177 21.0549 66.3938C20.46 66.8699 20.3636 67.7382 20.8397 68.3331L24.6764 73.1274C25.1525 73.7223 26.0207 73.8186 26.6157 73.3425C27.2106 72.8664 27.307 71.9982 26.8308 71.4032L22.9942 66.609Z" fill="#E9A500"/>
<path d="M14.7025 75.3035C14.2104 74.7223 13.3403 74.6501 12.7591 75.1422C12.1778 75.6343 12.1056 76.5044 12.5977 77.0856L15.6288 80.6657C16.1209 81.2469 16.991 81.3192 17.5722 80.827C18.1535 80.3349 18.2257 79.4648 17.7336 78.8836L14.7025 75.3035Z" fill="#E9A500"/>
<path d="M30.6896 70.5292C30.3238 70.5292 29.973 70.3839 29.7143 70.1252C29.4556 69.8665 29.3103 69.5157 29.3103 69.1499V60.874H32.0689V69.1499C32.0689 69.5157 31.9236 69.8665 31.6649 70.1252C31.4063 70.3839 31.0554 70.5292 30.6896 70.5292Z" fill="#E9A500"/>
<path d="M30 44H27.2955C26.8692 44 26.4513 44.1296 26.0887 44.3742C25.7261 44.6188 25.433 44.9688 25.2423 45.3849C25.0269 45.8552 24.9525 46.3876 25.0296 46.9066C25.1068 47.4257 25.3317 47.905 25.6723 48.2768L27.2512 50H30V44Z" fill="#F2F2F4"/>
<path d="M30 61.1429L26.4 65L24 58.5714L26.4 56L30 61.1429Z" fill="#DFE1E3"/>
<path d="M34.2 56L37 58.5714L34.2 65L30 61.1429L34.2 56Z" fill="#DFE1E3"/>
<path d="M31 86H64V90H31V86Z" fill="#DFE1E3"/>
<path d="M80.4545 90L90 70H69.5455L60 90H80.4545Z" fill="#F2F2F4"/>
<path d="M31.8838 79.3678L45.6087 77.4713C46.8504 77.2998 48.1135 77.424 49.3019 77.8345C50.8081 78.3548 52.1371 79.3152 53.1289 80.6L55.7781 84.0319C55.8973 84.1863 55.9719 84.3723 55.9935 84.5687C56.0151 84.7651 55.9827 84.9639 55.9001 85.142C55.8174 85.3202 55.6879 85.4705 55.5265 85.5758C55.365 85.681 55.1781 85.7368 54.9874 85.7368L50.2382 85.7368L47.4958 84.3158L36.0249 89.0709C34.5443 89.6847 32.9644 90 31.3698 90C29.5482 90 27.7485 89.5885 26.096 88.7943C24.4435 88 22.9779 86.842 21.8013 85.4009L18 80.7451L26.9682 73L31.8838 79.3678Z" fill="#F2F2F4"/>
<path d="M27.7212 78.6216L29.9718 78.3219C30.3343 78.2736 30.7012 78.3713 30.9916 78.5935C31.2821 78.8157 31.4724 79.1442 31.5207 79.5067C31.569 79.8692 31.4713 80.236 31.2491 80.5265C31.0269 80.817 30.6984 81.0073 30.3359 81.0556L28.0854 81.3554C27.7229 81.4037 27.356 81.306 27.0655 81.0838C26.775 80.8616 26.5847 80.5331 26.5364 80.1706C26.4881 79.8081 26.5858 79.4412 26.808 79.1507C27.0302 78.8603 27.3587 78.6699 27.7212 78.6216L27.7212 78.6216Z" fill="#DFE1E3"/>
</svg>
